<?xml version="1.0" encoding="UTF-8" standalone="no"?>
<!DOCTYPE svg PUBLIC "-//W3C//DTD SVG 1.0//EN" "http://www.w3.org/TR/2001/PR-SVG-20010719/DTD/svg10.dtd">
<svg width="43cm" height="24cm" viewBox="19 19 847 462" xmlns="http://www.w3.org/2000/svg" xmlns:xlink="http://www.w3.org/1999/xlink">
  <g>
    <text font-size="12.8" style="fill: #000000;text-anchor:start;font-family:sans-serif;font-style:normal;font-weight:normal" x="860" y="380">
      <tspan x="860" y="380"></tspan>
    </text>
    <g>
      <rect style="fill: #ffffff" x="745" y="60" width="120" height="350"/>
      <rect style="fill: none; fill-opacity:0; stroke-width: 2; stroke: #000000" x="745" y="60" width="120" height="350"/>
    </g>
    <text font-size="12.8" style="fill: #000000;text-anchor:start;font-family:sans-serif;font-style:normal;font-weight:normal" x="763" y="110">
      <tspan x="763" y="110"></tspan>
    </text>
    <line style="fill: none; fill-opacity:0; stroke-width: 2; stroke: #000000" x1="805" y1="180" x2="805" y2="160"/>
    <g>
      <rect style="fill: #ffffff" x="755" y="180" width="100" height="60"/>
      <rect style="fill: none; fill-opacity:0; stroke-width: 2; stroke: #000000" x="755" y="180" width="100" height="60"/>
    </g>
    <text font-size="12.8" style="fill: #000000;text-anchor:middle;font-family:sans-serif;font-style:normal;font-weight:normal" x="805" y="215.075">
      <tspan x="805" y="215.075">Debug Client</tspan>
    </text>
    <text font-size="12.8" style="fill: #000000;text-anchor:start;font-family:sans-serif;font-style:normal;font-weight:normal" x="763" y="230">
      <tspan x="763" y="230"></tspan>
    </text>
    <g>
      <rect style="fill: #ffffff" x="755" y="260" width="100" height="40"/>
      <rect style="fill: none; fill-opacity:0; stroke-width: 2; stroke: #000000" x="755" y="260" width="100" height="40"/>
    </g>
    <text font-size="12.8" style="fill: #000000;text-anchor:middle;font-family:sans-serif;font-style:normal;font-weight:normal" x="805" y="285.075">
      <tspan x="805" y="285.075">GDB</tspan>
    </text>
    <text font-size="12.8" style="fill: #000000;text-anchor:start;font-family:sans-serif;font-style:normal;font-weight:normal" x="805" y="280">
      <tspan x="805" y="280"></tspan>
    </text>
    <text font-size="12.8" style="fill: #000000;text-anchor:start;font-family:sans-serif;font-style:normal;font-weight:normal" x="805" y="280">
      <tspan x="805" y="280"></tspan>
    </text>
    <g>
      <rect style="fill: #ffffff" x="755" y="320" width="100" height="80"/>
      <rect style="fill: none; fill-opacity:0; stroke-width: 2; stroke: #000000" x="755" y="320" width="100" height="80"/>
    </g>
    <text font-size="12.8" style="fill: #000000;text-anchor:middle;font-family:sans-serif;font-style:normal;font-weight:normal" x="805" y="349.075">
      <tspan x="805" y="349.075">Debuger</tspan>
      <tspan x="805" y="365.075">Frontend</tspan>
      <tspan x="805" y="381.075">(Eclipse)</tspan>
    </text>
    <text font-size="12.8" style="fill: #000000;text-anchor:start;font-family:sans-serif;font-style:normal;font-weight:normal" x="805" y="360">
      <tspan x="805" y="360"></tspan>
    </text>
    <text font-size="12.8" style="fill: #000000;text-anchor:start;font-family:sans-serif;font-style:normal;font-weight:normal" x="805" y="360">
      <tspan x="805" y="360"></tspan>
    </text>
    <text font-size="12.8" style="fill: #000000;text-anchor:start;font-family:sans-serif;font-style:normal;font-weight:normal" x="823" y="310">
      <tspan x="823" y="310"></tspan>
    </text>
    <g>
      <rect style="fill: #ffffff" x="755" y="120" width="100" height="40"/>
      <rect style="fill: none; fill-opacity:0; stroke-width: 2; stroke: #000000" x="755" y="120" width="100" height="40"/>
    </g>
    <text font-size="12.8" style="fill: #000000;text-anchor:middle;font-family:sans-serif;font-style:normal;font-weight:normal" x="805" y="145.075">
      <tspan x="805" y="145.075">Terminal</tspan>
    </text>
    <text font-size="12.8" style="fill: #000000;text-anchor:start;font-family:sans-serif;font-style:normal;font-weight:normal" x="805" y="140">
      <tspan x="805" y="140"></tspan>
    </text>
    <text font-size="12.8" style="fill: #000000;text-anchor:start;font-family:sans-serif;font-style:normal;font-weight:normal" x="805" y="140">
      <tspan x="805" y="140"></tspan>
    </text>
    <text font-size="12.8" style="fill: #000000;text-anchor:start;font-family:sans-serif;font-style:normal;font-weight:normal" x="805" y="140">
      <tspan x="805" y="140"></tspan>
    </text>
    <text font-size="12.8" style="fill: #000000;text-anchor:start;font-family:sans-serif;font-style:normal;font-weight:normal" x="805" y="140">
      <tspan x="805" y="140"></tspan>
    </text>
    <text font-size="12.8" style="fill: #000000;text-anchor:start;font-family:sans-serif;font-style:normal;font-weight:normal" x="783" y="370">
      <tspan x="783" y="370"></tspan>
    </text>
    <text font-size="12.8" style="fill: #000000;text-anchor:start;font-family:sans-serif;font-style:normal;font-weight:normal" x="805" y="210">
      <tspan x="805" y="210"></tspan>
    </text>
    <line style="fill: none; fill-opacity:0; stroke-width: 2; stroke: #000000" x1="805" y1="240" x2="805" y2="260"/>
    <line style="fill: none; fill-opacity:0; stroke-width: 2; stroke: #000000" x1="805" y1="300" x2="805" y2="320"/>
    <text font-size="18.0622" style="fill: #000000;text-anchor:middle;font-family:sans-serif;font-style:normal;font-weight:700" x="805" y="80">
      <tspan x="805" y="80">Remote</tspan>
      <tspan x="805" y="102.578">PC</tspan>
    </text>
  </g>
  <g>
    <g>
      <rect style="fill: #ffffff" x="520" y="140" width="160" height="340"/>
      <rect style="fill: none; fill-opacity:0; stroke-width: 2; stroke: #000000" x="520" y="140" width="160" height="340"/>
    </g>
    <g>
      <rect style="fill: #ffffff" x="540" y="310" width="120" height="60"/>
      <rect style="fill: none; fill-opacity:0; stroke-width: 2; stroke: #000000" x="540" y="310" width="120" height="60"/>
    </g>
    <text font-size="12.8" style="fill: #000000;text-anchor:middle;font-family:sans-serif;font-style:normal;font-weight:normal" x="600" y="337.075">
      <tspan x="600" y="337.075">Authentication</tspan>
      <tspan x="600" y="353.075">Server</tspan>
    </text>
    <text font-size="12.8" style="fill: #000000;text-anchor:start;font-family:sans-serif;font-style:normal;font-weight:normal" x="600" y="340">
      <tspan x="600" y="340"></tspan>
    </text>
    <g>
      <path style="fill: #ffffff" d="M 528.919 409.694 C 540.919,400.194 546.919,397.027 558.919,397.027 C 570.919,397.027 576.919,400.194 588.919,409.694 L 588.919,460.36 C 576.919,469.86 570.919,473.027 558.919,473.027 C 546.919,473.027 540.919,469.86 528.919,460.36 L 528.919,409.694z"/>
      <path style="fill: none; fill-opacity:0; stroke-width: 2; stroke: #000000" d="M 528.919 409.694 C 540.919,400.194 546.919,397.027 558.919,397.027 C 570.919,397.027 576.919,400.194 588.919,409.694 L 588.919,460.36 C 576.919,469.86 570.919,473.027 558.919,473.027 C 546.919,473.027 540.919,469.86 528.919,460.36 L 528.919,409.694"/>
      <path style="fill: none; fill-opacity:0; stroke-width: 2; stroke: #000000" d="M 528.919 409.694 C 540.919,419.194 546.919,422.36 558.919,422.36 C 570.919,422.36 576.919,419.194 588.919,409.694"/>
      <text font-size="12.7998" style="fill: #000000;text-anchor:middle;font-family:sans-serif;font-style:normal;font-weight:normal" x="558.919" y="438.36">
        <tspan x="558.919" y="438.36">Device</tspan>
        <tspan x="558.919" y="454.36">Database</tspan>
      </text>
    </g>
    <g>
      <path style="fill: #ffffff" d="M 594.054 417.243 L 674.054,417.243 L 674.054,451.529 C 658.054,445.814 650.054,445.814 634.054,451.529 C 618.054,457.243 610.054,457.243 594.054,451.529 L 594.054,417.243z"/>
      <path style="fill: none; fill-opacity:0; stroke-width: 2; stroke: #000000" d="M 594.054 417.243 L 674.054,417.243 L 674.054,451.529 C 658.054,445.814 650.054,445.814 634.054,451.529 C 618.054,457.243 610.054,457.243 594.054,451.529 L 594.054,417.243"/>
      <text font-size="12.7998" style="fill: #000000;text-anchor:middle;font-family:sans-serif;font-style:normal;font-weight:normal" x="634.054" y="436.529">
        <tspan x="634.054" y="436.529">Private Key</tspan>
      </text>
    </g>
    <line style="fill: none; fill-opacity:0; stroke-width: 2; stroke: #000000" x1="577.674" y1="370.992" x2="558.919" y2="397.027"/>
    <line style="fill: none; fill-opacity:0; stroke-width: 2; stroke: #000000" x1="613.652" y1="370.965" x2="634.054" y2="417.243"/>
    <text font-size="12.7998" style="fill: #000000;text-anchor:start;font-family:sans-serif;font-style:normal;font-weight:normal" x="520" y="280">
      <tspan x="520" y="280"></tspan>
    </text>
    <text font-size="18.0622" style="fill: #000000;text-anchor:start;font-family:sans-serif;font-style:normal;font-weight:700" x="560" y="160">
      <tspan x="560" y="160">Remote</tspan>
      <tspan x="560" y="182.578">Server</tspan>
    </text>
    <g>
      <rect style="fill: #ffffff" x="540" y="210" width="120" height="60"/>
      <rect style="fill: none; fill-opacity:0; stroke-width: 2; stroke: #000000" x="540" y="210" width="120" height="60"/>
    </g>
    <text font-size="12.8" style="fill: #000000;text-anchor:middle;font-family:sans-serif;font-style:normal;font-weight:normal" x="600" y="237.075">
      <tspan x="600" y="237.075">Debug Session</tspan>
      <tspan x="600" y="253.075">Manager</tspan>
    </text>
    <line style="fill: none; fill-opacity:0; stroke-width: 2; stroke: #000000" x1="600" y1="270" x2="600" y2="310"/>
  </g>
  <g>
    <rect style="fill: #ffffff" x="20" y="20" width="210.724" height="360"/>
    <rect style="fill: none; fill-opacity:0; stroke-width: 2; stroke: #000000" x="20" y="20" width="210.724" height="360"/>
  </g>
  <g>
    <rect style="fill: #ffffff" x="330" y="20" width="140" height="332"/>
    <rect style="fill: none; fill-opacity:0; stroke-width: 2; stroke: #000000" x="330" y="20" width="140" height="332"/>
  </g>
  <text font-size="12.8" style="fill: #000000;text-anchor:start;font-family:sans-serif;font-style:normal;font-weight:normal" x="348" y="100">
    <tspan x="348" y="100"></tspan>
  </text>
  <g>
    <rect style="fill: #ffffff" x="130" y="170" width="80" height="60"/>
    <rect style="fill: none; fill-opacity:0; stroke-width: 2; stroke: #000000" x="130" y="170" width="80" height="60"/>
  </g>
  <text font-size="12.8" style="fill: #000000;text-anchor:middle;font-family:sans-serif;font-style:normal;font-weight:normal" x="170" y="189.075">
    <tspan x="170" y="189.075">ThinkOS</tspan>
    <tspan x="170" y="205.075">Debug</tspan>
    <tspan x="170" y="221.075">Monitor</tspan>
  </text>
  <text font-size="12.8" style="fill: #000000;text-anchor:start;font-family:sans-serif;font-style:normal;font-weight:normal" x="170" y="200">
    <tspan x="170" y="200"></tspan>
  </text>
  <text font-size="12.8" style="fill: #000000;text-anchor:start;font-family:sans-serif;font-style:normal;font-weight:normal" x="227.722" y="101">
    <tspan x="227.722" y="101"></tspan>
  </text>
  <line style="fill: none; fill-opacity:0; stroke-width: 2; stroke: #000000" x1="210" y1="200" x2="340" y2="200"/>
  <g>
    <rect style="fill: #ffffff" x="340" y="170" width="120" height="60"/>
    <rect style="fill: none; fill-opacity:0; stroke-width: 2; stroke: #000000" x="340" y="170" width="120" height="60"/>
  </g>
  <text font-size="12.8" style="fill: #000000;text-anchor:middle;font-family:sans-serif;font-style:normal;font-weight:normal" x="400" y="205.075">
    <tspan x="400" y="205.075">Debug Agent</tspan>
  </text>
  <text font-size="12.8" style="fill: #000000;text-anchor:start;font-family:sans-serif;font-style:normal;font-weight:normal" x="348" y="220">
    <tspan x="348" y="220"></tspan>
  </text>
  <polyline style="fill: none; fill-opacity:0; stroke-width: 2; stroke: #000000" points="460,110 493,110 493,240 540,240 "/>
  <g>
    <rect style="fill: #ffffff" x="130" y="250" width="80" height="120"/>
    <rect style="fill: none; fill-opacity:0; stroke-width: 2; stroke: #000000" x="130" y="250" width="80" height="120"/>
  </g>
  <text font-size="12.8" style="fill: #000000;text-anchor:middle;font-family:sans-serif;font-style:normal;font-weight:normal" x="170" y="307.075">
    <tspan x="170" y="307.075">ThinkOS</tspan>
    <tspan x="170" y="323.075">Kernel</tspan>
  </text>
  <text font-size="12.8" style="fill: #000000;text-anchor:start;font-family:sans-serif;font-style:normal;font-weight:normal" x="170" y="310">
    <tspan x="170" y="310"></tspan>
  </text>
  <text font-size="12.8" style="fill: #000000;text-anchor:start;font-family:sans-serif;font-style:normal;font-weight:normal" x="170" y="310">
    <tspan x="170" y="310"></tspan>
  </text>
  <text font-size="12.8" style="fill: #000000;text-anchor:start;font-family:sans-serif;font-style:normal;font-weight:normal" x="390" y="270">
    <tspan x="390" y="270"></tspan>
  </text>
  <text font-size="12.8" style="fill: #000000;text-anchor:start;font-family:sans-serif;font-style:normal;font-weight:normal" x="390" y="270">
    <tspan x="390" y="270"></tspan>
  </text>
  <line style="fill: none; fill-opacity:0; stroke-width: 2; stroke: #000000" x1="170" y1="250" x2="170" y2="230"/>
  <text font-size="12.8" style="fill: #000000;text-anchor:start;font-family:sans-serif;font-style:normal;font-weight:normal" x="390" y="350">
    <tspan x="390" y="350"></tspan>
  </text>
  <text font-size="12.8" style="fill: #000000;text-anchor:start;font-family:sans-serif;font-style:normal;font-weight:normal" x="390" y="350">
    <tspan x="390" y="350"></tspan>
  </text>
  <text font-size="12.8" style="fill: #000000;text-anchor:start;font-family:sans-serif;font-style:normal;font-weight:normal" x="408" y="300">
    <tspan x="408" y="300"></tspan>
  </text>
  <text font-size="12.8" style="fill: #000000;text-anchor:start;font-family:sans-serif;font-style:normal;font-weight:normal" x="390" y="130">
    <tspan x="390" y="130"></tspan>
  </text>
  <text font-size="12.8" style="fill: #000000;text-anchor:start;font-family:sans-serif;font-style:normal;font-weight:normal" x="390" y="130">
    <tspan x="390" y="130"></tspan>
  </text>
  <text font-size="12.8" style="fill: #000000;text-anchor:start;font-family:sans-serif;font-style:normal;font-weight:normal" x="368" y="360">
    <tspan x="368" y="360"></tspan>
  </text>
  <text font-size="12.8" style="fill: #000000;text-anchor:start;font-family:sans-serif;font-style:normal;font-weight:normal" x="170" y="200">
    <tspan x="170" y="200"></tspan>
  </text>
  <text font-size="12.8" style="fill: #000000;text-anchor:start;font-family:sans-serif;font-style:normal;font-weight:normal" x="400" y="200">
    <tspan x="400" y="200"></tspan>
  </text>
  <g>
    <path style="fill: #ffffff" d="M 70 60 L 133.8,60 L 133.8,94.2857 C 121.04,88.5714 114.66,88.5714 101.9,94.2857 C 89.14,100 82.76,100 70,94.2857 L 70,60z"/>
    <path style="fill: none; fill-opacity:0; stroke-width: 2; stroke: #000000" d="M 70 60 L 133.8,60 L 133.8,94.2857 C 121.04,88.5714 114.66,88.5714 101.9,94.2857 C 89.14,100 82.76,100 70,94.2857 L 70,60"/>
    <text font-size="12.7998" style="fill: #000000;text-anchor:middle;font-family:sans-serif;font-style:normal;font-weight:normal" x="101.9" y="79.2857">
      <tspan x="101.9" y="79.2857">Public Key</tspan>
    </text>
  </g>
  <g>
    <path style="fill: #ffffff" d="M 140 50 L 213.05,50 L 213.05,95.6 C 198.44,88 191.135,88 176.525,95.6 C 161.915,103.2 154.61,103.2 140,95.6 L 140,50z"/>
    <path style="fill: none; fill-opacity:0; stroke-width: 2; stroke: #000000" d="M 140 50 L 213.05,50 L 213.05,95.6 C 198.44,88 191.135,88 176.525,95.6 C 161.915,103.2 154.61,103.2 140,95.6 L 140,50"/>
    <text font-size="12.7998" style="fill: #000000;text-anchor:middle;font-family:sans-serif;font-style:normal;font-weight:normal" x="176.525" y="66">
      <tspan x="176.525" y="66">Device Id +</tspan>
      <tspan x="176.525" y="82">Session Key</tspan>
    </text>
  </g>
  <g>
    <polygon style="fill: #ffffff" points="120,110 220,110 170,154 "/>
    <polygon style="fill: none; fill-opacity:0; stroke-width: 2; stroke: #000000" points="120,110 220,110 170,154 "/>
    <text font-size="12.7998" style="fill: #000000;text-anchor:middle;font-family:sans-serif;font-style:normal;font-weight:normal" x="170" y="126">
      <tspan x="170" y="126">Encrypt</tspan>
    </text>
  </g>
  <line style="fill: none; fill-opacity:0; stroke-width: 2; stroke: #000000" x1="170" y1="154" x2="170" y2="170"/>
  <text font-size="12.7998" style="fill: #000000;text-anchor:start;font-family:sans-serif;font-style:normal;font-weight:normal" x="176.525" y="76.6">
    <tspan x="176.525" y="76.6"></tspan>
  </text>
  <text font-size="12.7998" style="fill: #000000;text-anchor:start;font-family:sans-serif;font-style:normal;font-weight:normal" x="240" y="190">
    <tspan x="240" y="190">Point-to-Point</tspan>
  </text>
  <text font-size="12.7998" style="fill: #000000;text-anchor:start;font-family:sans-serif;font-style:normal;font-weight:normal" x="480" y="100">
    <tspan x="480" y="100">SSL</tspan>
  </text>
  <text font-size="12.7998" style="fill: #000000;text-anchor:start;font-family:sans-serif;font-style:normal;font-weight:normal" x="147.245" y="190.471">
    <tspan x="147.245" y="190.471"></tspan>
  </text>
  <text font-size="12.8" style="fill: #000000;text-anchor:start;font-family:sans-serif;font-style:normal;font-weight:normal" x="230.89" y="703.907">
    <tspan x="230.89" y="703.907"></tspan>
  </text>
  <g>
    <rect style="fill: #ffffff" x="30" y="150" width="80" height="120"/>
    <rect style="fill: none; fill-opacity:0; stroke-width: 2; stroke: #000000" x="30" y="150" width="80" height="120"/>
  </g>
  <text font-size="12.8" style="fill: #000000;text-anchor:middle;font-family:sans-serif;font-style:normal;font-weight:normal" x="70" y="199.075">
    <tspan x="70" y="199.075">User</tspan>
    <tspan x="70" y="215.075">Application</tspan>
    <tspan x="70" y="231.075"></tspan>
  </text>
  <text font-size="12.8" style="fill: #000000;text-anchor:start;font-family:sans-serif;font-style:normal;font-weight:normal" x="70" y="210">
    <tspan x="70" y="210"></tspan>
  </text>
  <text font-size="12.8" style="fill: #000000;text-anchor:start;font-family:sans-serif;font-style:normal;font-weight:normal" x="70" y="210">
    <tspan x="70" y="210"></tspan>
  </text>
  <text font-size="12.7998" style="fill: #000000;text-anchor:start;font-family:sans-serif;font-style:normal;font-weight:normal" x="157.469" y="114.067">
    <tspan x="157.469" y="114.067"></tspan>
  </text>
  <text font-size="12.7998" style="fill: #000000;text-anchor:start;font-family:sans-serif;font-style:normal;font-weight:normal" x="170" y="110">
    <tspan x="170" y="110"></tspan>
  </text>
  <text font-size="15.8044" style="fill: #000000;text-anchor:middle;font-family:sans-serif;font-style:normal;font-weight:700" x="400" y="40">
    <tspan x="400" y="40">Debug</tspan>
    <tspan x="400" y="59.7556">Access Device</tspan>
  </text>
  <text font-size="18.0622" style="fill: #000000;text-anchor:start;font-family:sans-serif;font-style:normal;font-weight:700" x="110.722" y="40">
    <tspan x="110.722" y="40">Device</tspan>
  </text>
  <line style="fill: none; fill-opacity:0; stroke-width: 2; stroke: #000000" x1="195" y1="110" x2="194.788" y2="89.9"/>
  <line style="fill: none; fill-opacity:0; stroke-width: 2; stroke: #000000" x1="117.85" y1="90" x2="145" y2="110"/>
  <text font-size="12.7998" style="fill: #000000;text-anchor:start;font-family:sans-serif;font-style:normal;font-weight:normal" x="260" y="190">
    <tspan x="260" y="190"></tspan>
  </text>
  <text font-size="12.7998" style="fill: #000000;text-anchor:start;font-family:sans-serif;font-style:normal;font-weight:normal" x="240" y="220">
    <tspan x="240" y="220">USB/Serial</tspan>
  </text>
  <polyline style="fill: none; fill-opacity:0; stroke-width: 2; stroke: #000000" points="70,270 70,310 130,310 "/>
  <text font-size="12.7998" style="fill: #000000;text-anchor:start;font-family:sans-serif;font-style:normal;font-weight:normal" x="480" y="210">
    <tspan x="480" y="210"></tspan>
  </text>
  <polyline style="fill: none; fill-opacity:0; stroke-width: 2; stroke: #000000" points="755,210 720,210 720,240 660,240 "/>
  <g>
    <rect style="fill: #ffffff" x="340" y="80" width="120" height="60"/>
    <rect style="fill: none; fill-opacity:0; stroke-width: 2; stroke: #000000" x="340" y="80" width="120" height="60"/>
  </g>
  <text font-size="12.8" style="fill: #000000;text-anchor:middle;font-family:sans-serif;font-style:normal;font-weight:normal" x="400" y="99.075">
    <tspan x="400" y="99.075">Mobile </tspan>
    <tspan x="400" y="115.075">Broadband</tspan>
    <tspan x="400" y="131.075">Modem</tspan>
  </text>
  <line style="fill: none; fill-opacity:0; stroke-width: 2; stroke: #000000" x1="400" y1="140" x2="400" y2="170"/>
  <text font-size="12.7998" style="fill: #000000;text-anchor:start;font-family:sans-serif;font-style:normal;font-weight:normal" x="720" y="200">
    <tspan x="720" y="200">SSL</tspan>
  </text>
  <line style="fill: none; fill-opacity:0; stroke-width: 2; stroke: #000000" x1="400" y1="230" x2="400" y2="260"/>
  <g>
    <line style="fill: none; fill-opacity:0; stroke-width: 2; stroke: #000000" x1="356" y1="280" x2="234.472" y2="280"/>
    <polyline style="fill: none; fill-opacity:0; stroke-width: 2; stroke: #000000" points="242.236,275 232.236,280 242.236,285 "/>
  </g>
  <g>
    <line style="fill: none; fill-opacity:0; stroke-width: 2; stroke: #000000" x1="351.528" y1="300" x2="230" y2="300"/>
    <polyline style="fill: none; fill-opacity:0; stroke-width: 2; stroke: #000000" points="343.764,305 353.764,300 343.764,295 "/>
  </g>
  <g>
    <line style="fill: none; fill-opacity:0; stroke-width: 2; stroke: #000000" x1="351.528" y1="320" x2="230" y2="320"/>
    <polyline style="fill: none; fill-opacity:0; stroke-width: 2; stroke: #000000" points="343.764,325 353.764,320 343.764,315 "/>
  </g>
  <g>
    <rect style="fill: #ffffff" x="356" y="260" width="88" height="80"/>
    <rect style="fill: none; fill-opacity:0; stroke-width: 2; stroke: #000000" x="356" y="260" width="88" height="80"/>
    <text font-size="12.7998" style="fill: #000000;text-anchor:middle;font-family:sans-serif;font-style:normal;font-weight:normal" x="400" y="304.8">
      <tspan x="400" y="304.8"></tspan>
    </text>
  </g>
  <text font-size="12.8" style="fill: #000000;text-anchor:middle;font-family:sans-serif;font-style:normal;font-weight:normal" x="400" y="281.075">
    <tspan x="400" y="281.075">I/O</tspan>
    <tspan x="400" y="297.075">Monitor</tspan>
    <tspan x="400" y="313.075">Capture</tspan>
    <tspan x="400" y="329.075">Control</tspan>
  </text>
  <text font-size="12.7998" style="fill: #000000;text-anchor:start;font-family:sans-serif;font-style:normal;font-weight:normal" x="256.465" y="274.343">
    <tspan x="256.465" y="274.343">Test Points</tspan>
  </text>
</svg>
