<?xml version="1.0" encoding="UTF-8" standalone="no"?>
<!-- Created with Inkscape (http://www.inkscape.org/) -->

<svg
   xmlns:dc="http://purl.org/dc/elements/1.1/"
   xmlns:cc="http://creativecommons.org/ns#"
   xmlns:rdf="http://www.w3.org/1999/02/22-rdf-syntax-ns#"
   xmlns:svg="http://www.w3.org/2000/svg"
   xmlns="http://www.w3.org/2000/svg"
   xmlns:sodipodi="http://sodipodi.sourceforge.net/DTD/sodipodi-0.dtd"
   xmlns:inkscape="http://www.inkscape.org/namespaces/inkscape"
   version="1.1"
   id="svg2"
   xml:space="preserve"
   width="241.40617"
   height="105.99999"
   viewBox="0 0 241.40617 105.99999"
   sodipodi:docname="thinkos_logo.svg"
   inkscape:version="0.92.2 (5c3e80d, 2017-08-06)"><metadata
     id="metadata8"><rdf:RDF><cc:Work
         rdf:about=""><dc:format>image/svg+xml</dc:format><dc:type
           rdf:resource="http://purl.org/dc/dcmitype/StillImage" /><dc:title></dc:title></cc:Work></rdf:RDF></metadata><defs
     id="defs6" /><sodipodi:namedview
     pagecolor="#ffffff"
     bordercolor="#666666"
     borderopacity="1"
     objecttolerance="10"
     gridtolerance="10"
     guidetolerance="10"
     inkscape:pageopacity="0"
     inkscape:pageshadow="2"
     inkscape:window-width="1209"
     inkscape:window-height="973"
     id="namedview4"
     showgrid="false"
     inkscape:zoom="1.6155345"
     inkscape:cx="39.924867"
     inkscape:cy="52.999996"
     inkscape:window-x="0"
     inkscape:window-y="0"
     inkscape:window-maximized="0"
     inkscape:current-layer="g10" /><g
     id="g10"
     inkscape:groupmode="layer"
     inkscape:label="thinkos_logo-2"
     transform="matrix(1.3333333,0,0,1.3333333,0,3.3166664e-6)"><g
       id="g12"><path
         d="m 73.609,55.836 -9.156,-5.289 -3,5.195 9.156,5.289 z"
         style="fill:#003380;fill-opacity:1;fill-rule:nonzero;stroke:none"
         id="path14"
         inkscape:connector-curvature="0" /><path
         d="m 61.031,70.609 -5.285,-9.156 -5.199,3 5.289,9.156 z"
         style="fill:#003380;fill-opacity:1;fill-rule:nonzero;stroke:none"
         id="path16"
         inkscape:connector-curvature="0" /><g
         id="g18"><path
           d="M 1.5,1.5 H 179.555 V 78 H 1.5 Z"
           style="fill:#ffffff;fill-opacity:1;fill-rule:nonzero;stroke:#003380;stroke-width:1.5;stroke-linecap:round;stroke-linejoin:round;stroke-miterlimit:4;stroke-dasharray:none;stroke-opacity:1"
           id="path20"
           inkscape:connector-curvature="0" /></g><path
         d="M 42.82,74.527 H 36.75 V 42.641 H 20.617 v -6.34 h 30.004 v 6.34 H 42.82 v 31.886"
         style="fill:#003380;fill-opacity:1;fill-rule:nonzero;stroke:none"
         id="path22"
         inkscape:connector-curvature="0" /><path
         d="M 71.605,56.668 V 74.527 H 65.617 V 57.773 c 0,-1.98 -0.238,-3.398 -0.719,-4.25 -0.468,-0.851 -1.234,-1.277 -2.304,-1.277 -1.098,0 -1.957,0.582 -2.574,1.742 -0.618,1.149 -0.926,2.746 -0.926,4.793 V 74.527 H 53.105 V 36.301 h 5.989 v 14.84 c 0.426,-1.524 1.152,-2.703 2.179,-3.539 1.032,-0.836 2.274,-1.25 3.727,-1.25 2.184,0 3.828,0.867 4.941,2.601 1.11,1.719 1.664,4.293 1.664,7.715"
         style="fill:#003380;fill-opacity:1;fill-rule:nonzero;stroke:none"
         id="path24"
         inkscape:connector-curvature="0" /><path
         d="M 74.125,47.012 H 86.063 V 69 h 5.515 v 5.527 H 73.461 V 69 h 6.57 V 52.539 h -5.906 v -5.527 m 5.906,-10.711 h 6.032 v 8.402 h -6.032 v -8.402"
         style="fill:#003380;fill-opacity:1;fill-rule:nonzero;stroke:none"
         id="path26"
         inkscape:connector-curvature="0" /><path
         d="m 111.727,56.668 v 17.859 h -5.993 V 57.773 c 0,-2 -0.238,-3.421 -0.718,-4.273 -0.465,-0.871 -1.235,-1.305 -2.305,-1.305 -1.086,0 -1.941,0.582 -2.574,1.746 -0.617,1.164 -0.926,2.778 -0.926,4.84 V 74.527 H 93.223 V 47.012 h 5.988 v 4.129 c 0.426,-1.524 1.152,-2.703 2.184,-3.539 1.027,-0.836 2.269,-1.25 3.722,-1.25 2.184,0 3.828,0.867 4.942,2.601 1.109,1.719 1.668,4.293 1.668,7.715"
         style="fill:#003380;fill-opacity:1;fill-rule:nonzero;stroke:none"
         id="path28"
         inkscape:connector-curvature="0" /><path
         d="m 113.746,36.301 h 6.031 v 20.07 l 7.243,-9.359 h 7.308 l -8.726,10.269 9.218,17.246 h -6.668 l -6.316,-12.871 -2.059,2.356 v 10.515 h -6.031 V 36.301"
         style="fill:#003380;fill-opacity:1;fill-rule:nonzero;stroke:none"
         id="path30"
         inkscape:connector-curvature="0" /><path
         d="m 144.832,43.043 c -1.551,0 -2.684,1.012 -3.398,3.035 -0.711,2.008 -1.071,5.258 -1.071,9.754 0,4.481 0.36,7.731 1.071,9.754 0.714,2.008 1.847,3.008 3.398,3.008 1.563,0 2.703,-1 3.414,-3.008 0.715,-2.023 1.07,-5.273 1.07,-9.754 0,-4.496 -0.355,-7.746 -1.07,-9.754 -0.711,-2.023 -1.851,-3.035 -3.414,-3.035 m -10.785,12.789 c 0,-6.402 0.906,-11.242 2.715,-14.516 1.828,-3.277 4.515,-4.918 8.07,-4.918 3.566,0 6.254,1.641 8.066,4.918 1.825,3.274 2.739,8.114 2.739,14.516 0,6.387 -0.914,11.219 -2.739,14.492 -1.812,3.278 -4.5,4.914 -8.066,4.914 -3.555,0 -6.242,-1.636 -8.07,-4.914 -1.809,-3.273 -2.715,-8.105 -2.715,-14.492"
         style="fill:#003380;fill-opacity:1;fill-rule:nonzero;stroke:none"
         id="path32"
         inkscape:connector-curvature="0" /><path
         d="m 163.789,58.141 c -3.059,-1.418 -5.129,-2.903 -6.215,-4.453 -1.082,-1.567 -1.625,-3.665 -1.625,-6.301 0,-3.383 0.891,-6.039 2.676,-7.973 1.785,-1.934 4.234,-2.902 7.348,-2.902 1.414,0 2.824,0.199 4.238,0.601 1.414,0.383 2.812,0.957 4.199,1.723 v 7.203 c -1.305,-1.117 -2.629,-1.969 -3.972,-2.551 -1.344,-0.582 -2.676,-0.875 -3.993,-0.875 -1.468,0 -2.593,0.36 -3.375,1.075 -0.781,0.718 -1.172,1.742 -1.172,3.074 0,1.035 0.282,1.894 0.844,2.578 0.574,0.664 1.77,1.406 3.578,2.223 l 2.618,1.199 c 2.468,1.101 4.285,2.558 5.453,4.379 1.164,1.816 1.75,4.105 1.75,6.875 0,3.765 -0.922,6.582 -2.758,8.449 -1.824,1.851 -4.59,2.773 -8.297,2.773 -1.523,0 -3.051,-0.222 -4.59,-0.672 -1.519,-0.433 -2.996,-1.086 -4.422,-1.953 v -7.625 c 1.617,1.403 3.184,2.442 4.692,3.125 1.523,0.684 3.023,1.028 4.507,1.028 1.497,0 2.653,-0.411 3.477,-1.227 0.824,-0.832 1.234,-1.992 1.234,-3.476 0,-1.114 -0.273,-2.09 -0.82,-2.922 -0.551,-0.852 -1.348,-1.52 -2.391,-2 l -2.984,-1.375"
         style="fill:#003380;fill-opacity:1;fill-rule:nonzero;stroke:none"
         id="path34"
         inkscape:connector-curvature="0" /><path
         d="m 23.754,61.453 -5.285,9.156 5.195,3 5.285,-9.156 z"
         style="fill:#003380;fill-opacity:1;fill-rule:nonzero;stroke:none"
         id="path36"
         inkscape:connector-curvature="0" /><path
         d="m 15.047,50.547 -9.156,5.289 3,5.195 9.156,-5.285 z"
         style="fill:#003380;fill-opacity:1;fill-rule:nonzero;stroke:none"
         id="path38"
         inkscape:connector-curvature="0" /><path
         d="m 5.891,36.641 v 6 l 7.066,0.109 v -6 z"
         style="fill:#003380;fill-opacity:1;fill-rule:nonzero;stroke:none"
         id="path40"
         inkscape:connector-curvature="0" /><path
         d="m 8.891,18.469 -3,5.195 9.156,5.285 3,-5.195 z"
         style="fill:#003380;fill-opacity:1;fill-rule:nonzero;stroke:none"
         id="path42"
         inkscape:connector-curvature="0" /><path
         d="m 23.664,5.891 -5.195,3 5.285,9.156 5.195,-3 z"
         style="fill:#003380;fill-opacity:1;fill-rule:nonzero;stroke:none"
         id="path44"
         inkscape:connector-curvature="0" /><path
         d="m 36.75,5.891 h 6 v 7.066 h -6 z"
         style="fill:#003380;fill-opacity:1;fill-rule:nonzero;stroke:none"
         id="path46"
         inkscape:connector-curvature="0" /><path
         d="m 55.836,5.891 -5.289,9.156 5.199,3 5.285,-9.156 z"
         style="fill:#003380;fill-opacity:1;fill-rule:nonzero;stroke:none"
         id="path48"
         inkscape:connector-curvature="0" /><path
         d="m 70.609,18.469 -9.156,5.285 3,5.195 9.156,-5.285 z"
         style="fill:#003380;fill-opacity:1;fill-rule:nonzero;stroke:none"
         id="path50"
         inkscape:connector-curvature="0" /><path
         d="M 42.82,64.453 H 36.75 V 42.641 H 20.617 v -6.34 h 30.004 v 6.34 H 42.82 v 21.812"
         style="fill:#003380;fill-opacity:1;fill-rule:nonzero;stroke:none"
         id="path52"
         inkscape:connector-curvature="0" /><path
         d="m 73.609,36.77 -7.066,-0.02 v 6 l 7.066,0.02 z"
         style="fill:#003380;fill-opacity:1;fill-rule:nonzero;stroke:none"
         id="path54"
         inkscape:connector-curvature="0" /><path
         d="m 36.75,66.543 h 6 v 7.066 h -6 z"
         style="fill:#003380;fill-opacity:1;fill-rule:nonzero;stroke:none"
         id="path56"
         inkscape:connector-curvature="0" /></g></g></svg>